<svg width="48" height="48" viewBox="0 0 48 48" fill="none" xmlns="http://www.w3.org/2000/svg">
<path d="M48 6.85712C48 3.075 44.925 0 41.1429 0H6.85714C3.075 0 0 3.075 0 6.85712V41.1428C0 44.925 3.075 48 6.85714 48H41.1429C44.925 48 48 44.925 48 41.1428V6.85712ZM28.4786 40.2536C28.4786 40.0607 28.4785 39.6107 28.4893 39.0107C28.5 37.7892 28.5 35.925 28.5 34.3286C28.5 32.6571 27.9429 31.5964 27.2893 31.0393C31.2536 30.6 35.4321 30.0536 35.4321 23.2072C35.4321 21.2571 34.7357 20.2822 33.6 19.0286C33.7822 18.5679 34.3928 16.6714 33.4178 14.2072C31.9286 13.7464 28.5214 16.125 28.5214 16.125C27.1071 15.7286 25.575 15.525 24.0643 15.525C22.5536 15.525 21.0214 15.7286 19.6071 16.125C19.6071 16.125 16.2 13.7464 14.7107 14.2072C13.7357 16.6607 14.3357 18.5571 14.5286 19.0286C13.3928 20.2822 12.8571 21.2571 12.8571 23.2072C12.8571 30.0214 16.8536 30.6 20.8178 31.0393C20.3035 31.5 19.8429 32.2929 19.6822 33.4286C18.6643 33.8892 16.0607 34.6822 14.5071 31.9393C13.5321 30.2464 11.775 30.1072 11.775 30.1072C10.0393 30.0857 11.6571 31.2 11.6571 31.2C12.8143 31.7357 13.6286 33.7929 13.6286 33.7929C14.6679 36.975 19.6393 35.9035 19.6393 35.9035C19.6393 36.8679 19.65 38.2286 19.65 39.1822C19.65 39.6964 19.6607 40.1035 19.6607 40.2536C19.6607 40.7143 19.3393 41.2714 18.4286 41.1107C11.3571 38.7428 6.40714 32.0143 6.40714 24.15C6.40714 14.3143 13.9286 6.84643 23.7643 6.84643C33.6 6.84643 41.5714 14.3143 41.5714 24.15C41.5822 32.0143 36.7822 38.7536 29.7107 41.1107C28.8107 41.2714 28.4786 40.7143 28.4786 40.2536ZM18.7822 34.3822C18.7607 34.2215 18.9 34.0822 19.1035 34.0393C19.3071 34.0178 19.5 34.1035 19.5214 34.2428C19.5536 34.3822 19.4143 34.5215 19.2 34.5643C18.9965 34.6072 18.8035 34.5215 18.7822 34.3822ZM17.8071 34.725C17.5714 34.7464 17.4107 34.6286 17.4107 34.4679C17.4107 34.3286 17.5714 34.2107 17.7857 34.2107C17.9893 34.1892 18.1822 34.3072 18.1822 34.4679C18.1822 34.6072 18.0214 34.725 17.8071 34.725ZM16.275 34.4892C16.0714 34.4464 15.9321 34.2857 15.975 34.1464C16.0178 34.0072 16.2321 33.9428 16.4143 33.9857C16.6286 34.05 16.7679 34.2107 16.7143 34.35C16.6714 34.4892 16.4571 34.5536 16.275 34.4892ZM14.9357 33.7072C14.775 33.5679 14.7321 33.3643 14.8393 33.2679C14.9357 33.15 15.1393 33.1714 15.3 33.3321C15.4393 33.4714 15.4928 33.6857 15.3965 33.7714C15.3 33.8892 15.0965 33.8679 14.9357 33.7072ZM14.025 32.6357C13.9071 32.475 13.9071 32.2929 14.025 32.2178C14.1429 32.1215 14.325 32.1964 14.4214 32.3571C14.5393 32.5178 14.5393 32.7107 14.4214 32.7964C14.325 32.8607 14.1429 32.7964 14.025 32.6357ZM13.35 31.6929C13.2321 31.5536 13.2107 31.3929 13.3071 31.3178C13.4035 31.2214 13.5643 31.275 13.6822 31.3822C13.8 31.5215 13.8214 31.6822 13.725 31.7571C13.6286 31.8536 13.4679 31.8 13.35 31.6929ZM12.7071 31.0072C12.5679 30.9428 12.5035 30.825 12.5464 30.7286C12.5893 30.6643 12.7071 30.6321 12.8464 30.6857C12.9857 30.7607 13.05 30.8786 13.0071 30.9643C12.9643 31.0607 12.825 31.0822 12.7071 31.0072Z" fill="#FD761B"/>
</svg>
