<svg width="62" height="71" viewBox="0 0 62 71" fill="none" xmlns="http://www.w3.org/2000/svg">
<path d="M62 13.2857C62 8.40046 58.0281 4.42859 53.1429 4.42859H8.85714C3.97188 4.42859 0 8.40046 0 13.2857V57.5714C0 62.4567 3.97188 66.4286 8.85714 66.4286H53.1429C58.0281 66.4286 62 62.4567 62 57.5714V13.2857ZM36.7848 56.4228C36.7848 56.1737 36.7848 55.5924 36.7987 54.8174C36.8125 53.2397 36.8125 50.8317 36.8125 48.7697C36.8125 46.6107 36.0929 45.2406 35.2487 44.521C40.3692 43.9536 45.7665 43.2478 45.7665 34.4045C45.7665 31.8857 44.867 30.6264 43.4 29.0072C43.6353 28.4121 44.4241 25.9625 43.1647 22.7795C41.2411 22.1844 36.8402 25.2567 36.8402 25.2567C35.0134 24.7447 33.0344 24.4817 31.083 24.4817C29.1317 24.4817 27.1527 24.7447 25.3259 25.2567C25.3259 25.2567 20.925 22.1844 19.0013 22.7795C17.742 25.9487 18.517 28.3982 18.7661 29.0072C17.2991 30.6264 16.6071 31.8857 16.6071 34.4045C16.6071 43.2063 21.7692 43.9536 26.8897 44.521C26.2254 45.1161 25.6304 46.1402 25.4228 47.6072C24.108 48.2022 20.7451 49.2264 18.7384 45.6835C17.479 43.4969 15.2094 43.317 15.2094 43.317C12.9674 43.2893 15.0571 44.7286 15.0571 44.7286C16.5518 45.4206 17.6036 48.0777 17.6036 48.0777C18.946 52.188 25.3674 50.804 25.3674 50.804C25.3674 52.0496 25.3813 53.8072 25.3813 55.0389C25.3813 55.7031 25.3951 56.229 25.3951 56.4228C25.3951 57.0179 24.9799 57.7375 23.8036 57.5299C14.6696 54.4714 8.27589 45.7804 8.27589 35.6223C8.27589 22.9179 17.9911 13.2719 30.6955 13.2719C43.4 13.2719 53.6964 22.9179 53.6964 35.6223C53.7103 45.7804 47.5103 54.4853 38.3763 57.5299C37.2138 57.7375 36.7848 57.0179 36.7848 56.4228ZM24.2603 48.8389C24.2326 48.6313 24.4125 48.4514 24.6754 48.396C24.9384 48.3683 25.1875 48.479 25.2152 48.6589C25.2567 48.8389 25.0768 49.0188 24.8 49.0741C24.5371 49.1295 24.2879 49.0188 24.2603 48.8389ZM23.0009 49.2817C22.6964 49.3094 22.4888 49.1572 22.4888 48.9496C22.4888 48.7697 22.6964 48.6174 22.9732 48.6174C23.2362 48.5897 23.4853 48.742 23.4853 48.9496C23.4853 49.1295 23.2777 49.2817 23.0009 49.2817ZM21.0219 48.9772C20.7589 48.9219 20.579 48.7143 20.6344 48.5344C20.6897 48.3545 20.9665 48.2714 21.2018 48.3268C21.4786 48.4098 21.6585 48.6174 21.5893 48.7973C21.5339 48.9772 21.2571 49.0603 21.0219 48.9772ZM19.292 47.967C19.0844 47.7871 19.029 47.5241 19.1674 47.3996C19.292 47.2473 19.5549 47.275 19.7625 47.4826C19.9424 47.6625 20.0116 47.9393 19.8871 48.05C19.7625 48.2022 19.4996 48.1746 19.292 47.967ZM18.1156 46.583C17.9634 46.3755 17.9634 46.1402 18.1156 46.0433C18.2679 45.9188 18.5031 46.0156 18.6277 46.2232C18.7799 46.4308 18.7799 46.6799 18.6277 46.7906C18.5031 46.8737 18.2679 46.7906 18.1156 46.583ZM17.2437 45.3652C17.0915 45.1853 17.0638 44.9777 17.1884 44.8808C17.3129 44.7563 17.5205 44.8255 17.6728 44.9639C17.825 45.1438 17.8527 45.3514 17.7281 45.4482C17.6036 45.5728 17.396 45.5036 17.2437 45.3652ZM16.4134 44.4795C16.2335 44.3964 16.1504 44.2442 16.2058 44.1197C16.2612 44.0366 16.4134 43.9951 16.5933 44.0643C16.7732 44.1612 16.8563 44.3134 16.8009 44.4241C16.7455 44.5487 16.5656 44.5764 16.4134 44.4795Z" fill="white"/>
</svg>
