<svg width="48" height="48" viewBox="0 0 48 48" fill="none" xmlns="http://www.w3.org/2000/svg">
<path d="M44.5714 0H3.41785C1.53214 0 0 1.55357 0 3.46071V44.5393C0 46.4464 1.53214 48 3.41785 48H44.5714C46.4571 48 48 46.4464 48 44.5393V3.46071C48 1.55357 46.4571 0 44.5714 0ZM14.5071 41.1428H7.39286V18.2357H14.5178V41.1428H14.5071ZM10.95 15.1072C8.66787 15.1072 6.825 13.2536 6.825 10.9822C6.825 8.71069 8.66787 6.85712 10.95 6.85712C13.2214 6.85712 15.075 8.71069 15.075 10.9822C15.075 13.2643 13.2321 15.1072 10.95 15.1072ZM41.175 41.1428H34.0607V30C34.0607 27.3428 34.0071 23.925 30.3643 23.925C26.6571 23.925 26.0893 26.8178 26.0893 29.8072V41.1428H18.975V18.2357H25.8V21.3643H25.8965C26.85 19.5643 29.175 17.6679 32.6357 17.6679C39.8357 17.6679 41.175 22.4143 41.175 28.5857V41.1428Z" fill="#FD761B"/>
</svg>
