<svg width="62" height="71" viewBox="0 0 62 71" fill="none" xmlns="http://www.w3.org/2000/svg">
<path d="M57.5714 4.42859H4.41473C1.97902 4.42859 0 6.43529 0 8.89868V61.9585C0 64.4219 1.97902 66.4286 4.41473 66.4286H57.5714C60.0071 66.4286 62 64.4219 62 61.9585V8.89868C62 6.43529 60.0071 4.42859 57.5714 4.42859ZM18.7384 57.5714H9.54911V27.9831H18.7522V57.5714H18.7384ZM14.1437 23.942C11.196 23.942 8.81562 21.5478 8.81562 18.6139C8.81562 15.6799 11.196 13.2857 14.1437 13.2857C17.0777 13.2857 19.4719 15.6799 19.4719 18.6139C19.4719 21.5616 17.0915 23.942 14.1437 23.942ZM53.1844 57.5714H43.9951V43.1786C43.9951 39.7464 43.9259 35.3317 39.2205 35.3317C34.4321 35.3317 33.6987 39.0683 33.6987 42.9295V57.5714H24.5094V27.9831H33.325V32.0241H33.4496C34.6812 29.6991 37.6844 27.2496 42.1545 27.2496C51.4545 27.2496 53.1844 33.3804 53.1844 41.3518V57.5714Z" fill="white"/>
</svg>
